<svg xmlns="http://www.w3.org/2000/svg" width="32" height="32" viewBox="0 0 32 32" fill="none">
  <path fillRule="evenodd" clipRule="evenodd" d="M8.99694 11.4696H23.1205V22.9789C23.1205 23.6619 22.5663 24.2172 21.8833 24.2172H20.4685V27.7219C20.4718 28.1459 20.3066 28.5537 20.0092 28.8559C19.7118 29.1581 19.3067 29.3298 18.8827 29.3333C18.6726 29.3318 18.4649 29.289 18.2714 29.2072C18.0778 29.1254 17.9023 29.0063 17.7548 28.8567C17.6073 28.707 17.4908 28.5298 17.4118 28.3351C17.3329 28.1404 17.2931 27.932 17.2947 27.7219V24.2172H14.8238V27.7219C14.8254 27.932 14.7856 28.1404 14.7067 28.3351C14.6277 28.5298 14.5112 28.707 14.3637 28.8567C14.2162 29.0063 14.0407 29.1254 13.8472 29.2072C13.6536 29.289 13.4459 29.3318 13.2358 29.3333C13.0258 29.3317 12.8181 29.2887 12.6247 29.2069C12.4313 29.1251 12.2559 29.0059 12.1086 28.8563C11.9612 28.7067 11.8448 28.5295 11.7659 28.3348C11.687 28.1402 11.6472 27.9319 11.6489 27.7219V24.2172H10.2352C9.5522 24.2172 8.99694 23.6619 8.99694 22.9789V11.4696ZM6.22955 11.3752C5.34447 11.3752 4.62708 12.1037 4.62708 13.0032V19.3631C4.62708 20.2604 5.34447 20.99 6.22955 20.99C7.11463 20.99 7.83202 20.2604 7.83202 19.3631V13.0032C7.83202 12.1037 7.11463 11.3752 6.22955 11.3752ZM23.1205 10.3091H8.99694C9.1713 8.29906 10.4773 6.56777 12.3562 5.56498L11.0125 3.59159C10.9668 3.5284 10.9342 3.45666 10.9166 3.38063C10.8991 3.30461 10.897 3.22583 10.9105 3.14898C10.9239 3.07213 10.9527 2.99876 10.9951 2.93323C11.0374 2.8677 11.0925 2.81133 11.157 2.76747C11.2215 2.72361 11.2942 2.69315 11.3707 2.67789C11.4472 2.66263 11.526 2.66288 11.6024 2.67863C11.6789 2.69438 11.7513 2.72531 11.8156 2.76959C11.8798 2.81387 11.9345 2.87059 11.9765 2.93639L13.4401 5.08634C15.1367 4.4985 16.9818 4.4985 18.6784 5.08634L20.1421 2.93639C20.1851 2.87317 20.2401 2.81904 20.3041 2.7771C20.368 2.73516 20.4396 2.70622 20.5147 2.69194C20.5898 2.67765 20.667 2.67831 20.7419 2.69386C20.8168 2.70942 20.8878 2.73956 20.9511 2.78258C21.0143 2.82561 21.0684 2.88066 21.1104 2.9446C21.1523 3.00854 21.1812 3.08011 21.1955 3.15523C21.2098 3.23036 21.2091 3.30756 21.1936 3.38243C21.178 3.4573 21.1479 3.52837 21.1049 3.59159L19.7634 5.56387C21.6424 6.56555 22.9461 8.29573 23.1205 10.3091ZM13.861 7.57723C13.8611 7.4747 13.8409 7.37317 13.8018 7.27843C13.7626 7.18368 13.7052 7.09758 13.6327 7.02503C13.5603 6.95249 13.4743 6.89492 13.3796 6.85562C13.2849 6.81632 13.1834 6.79605 13.0809 6.79598C12.9783 6.79591 12.8768 6.81603 12.7821 6.85519C12.6873 6.89436 12.6012 6.9518 12.5287 7.02425C12.4561 7.09669 12.3986 7.18271 12.3593 7.2774C12.3199 7.37209 12.2997 7.47359 12.2996 7.57612C12.2996 7.78317 12.3819 7.98174 12.5283 8.12815C12.6747 8.27456 12.8733 8.35681 13.0803 8.35681C13.2874 8.35681 13.4859 8.27456 13.6323 8.12815C13.7787 7.98174 13.861 7.78428 13.861 7.57723ZM19.9177 7.57612C19.9177 7.36877 19.8354 7.16991 19.6887 7.0233C19.5421 6.87668 19.3433 6.79431 19.1359 6.79431C18.9286 6.79431 18.7297 6.87668 18.5831 7.0233C18.4365 7.16991 18.3541 7.36877 18.3541 7.57612C18.3541 7.78346 18.4365 7.98232 18.5831 8.12893C18.7297 8.27555 18.9286 8.35792 19.1359 8.35792C19.3433 8.35792 19.5421 8.27555 19.6887 8.12893C19.8354 7.98232 19.9177 7.78346 19.9177 7.57612ZM25.8901 11.3741C25.005 11.3741 24.2865 12.1026 24.2865 13.0021V19.3642C24.2865 20.2637 25.005 20.9922 25.8901 20.9922C26.7752 20.9922 27.4903 20.2626 27.4903 19.3642V13.001C27.4903 12.1026 26.7752 11.3741 25.8901 11.3741Z" fill="#333333"/>
</svg>