<svg xmlns="http://www.w3.org/2000/svg" width="32" height="32" viewBox="0 0 32 32" fill="none">
  <path d="M16 2.66663C8.63454 2.66663 2.66669 8.63448 2.66669 16C2.66669 23.3654 8.63454 29.3333 16 29.3333C23.3655 29.3333 29.3334 23.3654 29.3334 16C29.3334 8.63448 23.3655 2.66663 16 2.66663ZM10.9405 21.8267C10.8587 21.9663 10.7416 22.0818 10.6009 22.1618C10.4603 22.2417 10.3011 22.2832 10.1393 22.2821C9.97444 22.2835 9.81243 22.239 9.67145 22.1535C9.56648 22.0927 9.47456 22.0117 9.40096 21.9153C9.32735 21.8188 9.27352 21.7088 9.24255 21.5915C9.21158 21.4742 9.20408 21.352 9.22048 21.2317C9.23688 21.1115 9.27686 20.9958 9.33812 20.891L10.2482 19.3779C10.2942 19.2998 10.3598 19.2351 10.4386 19.1902C10.5173 19.1453 10.6064 19.1218 10.697 19.122H10.8316C11.4917 19.122 11.9536 19.519 12.0881 19.9035L10.9405 21.8267ZM18.6459 18.8506L12.6857 18.8571H8.72443C8.59979 18.8576 8.47635 18.8328 8.36159 18.7842C8.24683 18.7356 8.14314 18.6642 8.05681 18.5743C7.97048 18.4844 7.90331 18.3779 7.85937 18.2613C7.81543 18.1446 7.79565 18.0203 7.80121 17.8958C7.82026 17.3958 8.25657 17.0172 8.75359 17.0172H11.625L15.0292 11.2226L13.9268 9.3446C13.6786 8.91663 13.7887 8.35234 14.2143 8.08329C14.3192 8.01544 14.4368 7.9695 14.5599 7.94824C14.6831 7.92698 14.8092 7.93084 14.9308 7.95958C15.0524 7.98833 15.167 8.04137 15.2675 8.11551C15.3681 8.18966 15.4527 8.28337 15.5161 8.39103L16.1054 9.39758H16.1119L16.7018 8.39103C16.7653 8.28393 16.8497 8.19072 16.95 8.11695C17.0503 8.04318 17.1645 7.99036 17.2856 7.96164C17.4068 7.93292 17.5324 7.92889 17.6552 7.94979C17.7779 7.97069 17.8952 8.0161 18 8.08329C18.4232 8.35234 18.5322 8.91663 18.2822 9.34639L17.1798 11.2244L16.1084 13.0512L13.7816 17.019V17.0256H17.2107C17.6405 17.0256 18.1792 17.2565 18.397 17.6279L18.4161 17.6666C18.6084 17.9934 18.7173 18.2178 18.7173 18.5446C18.7141 18.6507 18.6905 18.7552 18.6476 18.8523L18.6459 18.8506ZM23.2738 18.8571H21.6601V18.8636L22.8399 20.8702C22.9668 21.0815 23.0056 21.3342 22.9481 21.5739C22.8905 21.8136 22.7412 22.0211 22.5322 22.1517C22.3873 22.2401 22.2209 22.2868 22.0512 22.2869C21.8899 22.2868 21.7313 22.245 21.5909 22.1655C21.4505 22.086 21.3331 21.9716 21.25 21.8333L19.5066 18.8654L18.4232 17.0202L17.0256 14.6309C16.8232 14.2898 16.7132 13.9017 16.7064 13.5051C16.6996 13.1085 16.7963 12.7169 16.9869 12.369C17.2631 11.8815 17.4744 11.7535 17.4744 11.7535L20.5834 17.0119H23.2566C23.7566 17.0119 24.1857 17.3964 24.209 17.8898C24.2138 18.0153 24.1932 18.1404 24.1484 18.2577C24.1036 18.375 24.0356 18.4821 23.9484 18.5724C23.8613 18.6627 23.7567 18.7345 23.6411 18.7835C23.5255 18.8324 23.4012 18.8574 23.2756 18.8571H23.2738Z" fill="#333333"/>
</svg>