<svg xmlns="http://www.w3.org/2000/svg" width="24" height="28" viewBox="0 0 24 28" fill="none">
  <path d="M22.6807 22.0777C21.8987 21.7575 21.5642 21.3325 21.5965 20.6983C21.6299 19.9581 21.2099 19.416 21.0105 19.2017C21.131 18.7415 21.4831 17.1494 21.0108 15.7664C20.5034 14.2862 18.9541 12.0255 17.3555 9.80321C16.701 8.89059 16.6701 7.89859 16.6343 6.7499C16.6 5.65429 16.5614 4.4124 15.9504 3.03184C15.2861 1.52862 13.9531 0.666626 12.293 0.666626C11.3055 0.666626 10.2918 0.975262 9.51174 1.51332C7.91435 2.61575 8.1255 5.01935 8.26522 6.60983C8.28437 6.82763 8.30238 7.03336 8.31287 7.20901C8.4059 8.7667 8.32126 9.58769 8.21057 9.83722C8.13897 10.0003 7.78644 10.4644 7.41337 10.9557C7.02753 11.4639 6.5901 12.0399 6.23154 12.5766C5.80374 13.2225 5.45838 14.2097 5.12439 15.1644C4.88002 15.863 4.6492 16.5228 4.42449 16.9171C4.11526 17.4613 4.03214 18.1051 4.19306 18.7099C4.03184 18.8219 3.79892 19.0424 3.60228 19.4581C3.36464 19.9652 2.88245 20.2377 1.87978 20.4305C1.41901 20.5248 1.10128 20.7185 0.93516 21.0063C0.69341 21.4252 0.825083 21.9516 0.945215 22.3113C1.1227 22.8401 1.0121 23.1748 0.811007 23.7824C0.764668 23.9226 0.712121 24.0814 0.658875 24.2566C0.575027 24.5329 0.605279 24.7842 0.74858 25.0034C1.12725 25.5823 2.23222 25.7864 3.36971 25.9207C4.04889 26.0014 4.79223 26.273 5.51119 26.5358C6.21563 26.7932 6.94403 27.0595 7.60615 27.1402C7.70679 27.1529 7.80646 27.1593 7.90255 27.1593C8.90225 27.1593 9.35393 26.496 9.49714 26.2234C9.85622 26.1502 11.0947 25.9155 12.3711 25.884C13.6455 25.8476 14.8786 26.0993 15.2279 26.1775C15.3377 26.3877 15.6272 26.8678 16.0887 27.1151C16.3423 27.2538 16.6953 27.3333 17.0568 27.3333H17.0569C17.443 27.3333 18.1775 27.242 18.7588 26.6304C19.3387 26.016 20.7874 25.2315 21.8454 24.6587C22.0629 24.5415 22.2798 24.4231 22.496 24.3033C23.0902 23.9739 23.4145 23.5031 23.3856 23.0119C23.3614 22.6038 23.0914 22.2459 22.6807 22.0777ZM9.52477 21.9594C9.4508 21.4383 8.78046 20.9215 8.00415 20.3231C7.36939 19.8338 6.64991 19.2792 6.4517 18.8095C6.04208 17.8406 6.36497 16.1369 6.92794 15.2596C7.20615 14.8203 7.43339 14.1542 7.65319 13.51C7.89048 12.8144 8.13591 12.0952 8.41036 11.7803C8.84498 11.2888 9.24665 10.3324 9.31782 9.5786C9.72481 9.96715 10.3562 10.4602 10.9394 10.4602C11.0292 10.4602 11.1164 10.4485 11.1997 10.4249C11.5987 10.3097 12.1857 9.97056 12.7533 9.64268C13.2427 9.35993 13.8461 9.01125 14.0732 8.97951C14.4625 9.53855 16.7248 14.545 16.956 16.1528C17.1389 17.4249 16.9457 18.4766 16.8485 18.8885C16.7593 18.876 16.6693 18.8696 16.5792 18.8692C15.9491 18.8692 15.7823 19.2131 15.7388 19.4185C15.6271 19.9521 15.6153 21.6583 15.6141 22.0417C15.3862 22.3312 14.234 23.6944 12.5797 23.9395C11.9058 24.0374 11.2766 24.0871 10.7095 24.0871C10.2248 24.0871 9.91542 24.0497 9.78698 24.0302L8.95567 23.079C9.28345 22.9172 9.61115 22.5757 9.52477 21.9594ZM10.5796 6.27532C10.5537 6.28651 10.5281 6.29849 10.503 6.31125C10.5004 6.25409 10.4946 6.19711 10.4856 6.14059C10.3949 5.61818 10.0485 5.23898 9.66212 5.23898C9.63353 5.23898 9.60477 5.24117 9.5732 5.24598C9.34335 5.28427 9.16306 5.45695 9.06426 5.70176C9.15091 5.16458 9.45526 4.76685 9.81635 4.76685C10.2404 4.76685 10.5986 5.33831 10.5986 6.01468C10.5986 6.09993 10.5924 6.18474 10.5796 6.27532ZM13.8746 6.67812C13.9134 6.55449 13.9344 6.42072 13.9344 6.28188C13.9344 5.66863 13.5453 5.18819 13.0486 5.18819C12.5632 5.18819 12.1683 5.67877 12.1683 6.28188C12.1683 6.32297 12.1703 6.36415 12.1741 6.40524L12.0989 6.37648C12.0429 6.2068 12.0145 6.02924 12.0148 5.85057C12.0148 5.11728 12.4834 4.52064 13.0596 4.52064C13.6357 4.52064 14.1044 5.11728 14.1044 5.85057C14.1044 6.15562 14.0202 6.44677 13.8746 6.67812ZM13.4498 8.10536C13.4415 8.14243 13.4238 8.15887 13.2285 8.26047C13.1299 8.31179 13.0071 8.3757 12.8535 8.46926L12.7508 8.53142C12.3383 8.78148 11.3725 9.36719 11.1103 9.40155C10.9322 9.4255 10.822 9.35643 10.5743 9.18812C10.5153 9.1476 10.4557 9.10791 10.3956 9.06904C9.94908 8.77606 9.66186 8.45334 9.62942 8.32718C9.775 8.21465 10.1358 7.93303 10.3206 7.7663C10.6956 7.41762 11.0729 7.1833 11.2597 7.1833C11.2696 7.1833 11.2785 7.184 11.2878 7.18575C11.5072 7.22448 12.0485 7.44053 12.4439 7.59826C12.6266 7.67117 12.7844 7.73413 12.8955 7.77399C13.2453 7.89413 13.4277 8.04783 13.4498 8.10536ZM16.5927 24.4001C16.79 23.51 17.0174 22.299 16.9806 21.5851C16.9721 21.423 16.9577 21.2464 16.9438 21.0758C16.9179 20.7566 16.8793 20.2823 16.9191 20.1416C16.927 20.138 16.9357 20.1348 16.9454 20.1321C16.9471 20.5402 17.0357 21.3543 17.6867 21.6382C17.8808 21.7229 18.1025 21.7657 18.3457 21.7657C18.9979 21.7657 19.7215 21.4458 20.0179 21.1494C20.1924 20.9749 20.3392 20.7614 20.442 20.5923C20.4645 20.6581 20.4783 20.7441 20.471 20.855C20.4323 21.457 20.7248 22.2556 21.2816 22.5499L21.3627 22.5925C21.561 22.6965 22.0876 22.973 22.0961 23.1042C22.096 23.1043 22.0917 23.1197 22.0623 23.1469C21.9304 23.2675 21.466 23.5046 21.017 23.734C20.2204 24.1407 19.3174 24.6017 18.9119 25.0282C18.341 25.6291 17.6952 26.0326 17.3053 26.0326C17.262 26.0332 17.2189 26.0271 17.1775 26.0146C16.754 25.8826 16.4054 25.2716 16.5927 24.4001ZM2.15668 22.1292C2.11348 21.9271 2.07939 21.7675 2.11602 21.6129C2.1426 21.4984 2.70802 21.3757 2.94951 21.3233C3.28901 21.2496 3.64014 21.1734 3.86974 21.0341C4.18021 20.846 4.34834 20.4991 4.49663 20.1931C4.60399 19.9718 4.71486 19.743 4.84679 19.6679C4.85422 19.6636 4.86559 19.6585 4.88727 19.6585C5.13444 19.6585 5.65309 20.1781 5.95194 20.6432C6.02774 20.7604 6.16816 20.9953 6.33061 21.2673C6.81647 22.0803 7.48174 23.1937 7.82919 23.5669C8.14229 23.9024 8.64913 24.5473 8.52446 25.1005C8.43318 25.5297 7.94723 25.8788 7.8326 25.956C7.79099 25.9654 7.73949 25.9702 7.6789 25.9702C7.01389 25.9702 5.69751 25.417 4.99027 25.1197L4.88561 25.0757C4.49068 24.9101 3.84596 24.8058 3.22248 24.7049C2.72639 24.6246 2.04704 24.5147 1.93442 24.4153C1.84314 24.3129 1.94903 23.9801 2.0424 23.6864C2.10964 23.4753 2.17906 23.2571 2.21709 23.0287C2.27104 22.6642 2.20756 22.3676 2.15668 22.1292Z" fill="#333333"/>
</svg>