<svg xmlns="http://www.w3.org/2000/svg" width="32" height="32" viewBox="0 0 32 32" fill="none">
  <path d="M16.3638 10.3286C15.3104 10.3286 13.6799 9.13095 11.9628 9.17424C9.69742 9.2031 7.61961 10.4873 6.45083 12.5218C4.09886 16.6053 5.84481 22.6368 8.13906 25.9555C9.26455 27.5716 10.592 29.3897 12.3524 29.332C14.0406 29.2598 14.6755 28.2353 16.7245 28.2353C18.759 28.2353 19.3362 29.332 21.1254 29.2887C22.9435 29.2598 24.0979 27.6437 25.2089 26.0132C26.4931 24.1374 27.027 22.3193 27.0559 22.2183C27.0126 22.2039 23.5207 20.862 23.4774 16.8218C23.4485 13.4453 26.2334 11.8292 26.3633 11.7571C24.776 9.43396 22.3375 9.17424 21.4862 9.11652C19.264 8.94337 17.4027 10.3286 16.3638 10.3286ZM20.1154 6.92327C21.0533 5.79778 21.6737 4.22499 21.5006 2.66663C20.1587 2.72434 18.5426 3.56124 17.5758 4.68673C16.7101 5.68235 15.9597 7.284 16.1617 8.8135C17.648 8.92894 19.1775 8.04875 20.1154 6.92327Z" fill="#333333"/>
</svg>