<svg xmlns="http://www.w3.org/2000/svg" width="32" height="32" viewBox="0 0 32 32" fill="none">
  <path d="M27.7024 4.17961C27.7953 4.25457 27.8702 4.34937 27.9217 4.45706C27.9732 4.56475 28 4.6826 28 4.80196V15.2011H15.2V6.55542L27.032 4.01802C27.1488 3.99279 27.2699 3.99407 27.3862 4.02175C27.5025 4.04944 27.6111 4.10283 27.704 4.17801M13.6 6.89779L4.632 8.81924C4.45305 8.85768 4.29269 8.95631 4.17767 9.09868C4.06266 9.24106 3.99995 9.41856 4 9.60158V15.2011H13.6V6.89779ZM4 16.801V24.0004C4.00003 24.1932 4.06965 24.3794 4.19605 24.5249C4.32246 24.6704 4.49715 24.7654 4.688 24.7924L13.6 26.0659V16.801H4ZM15.2 26.2947L27.088 27.9921C27.2014 28.0082 27.3169 27.9997 27.4267 27.9672C27.5365 27.9348 27.6381 27.8791 27.7246 27.804C27.811 27.729 27.8803 27.6362 27.9279 27.532C27.9754 27.4279 28 27.3147 28 27.2002V16.801H15.2V26.2947Z" fill="#333333"/>
</svg>